<svg xmlns="http://www.w3.org/2000/svg" viewBox="0 0 126.52 75.06"><defs><style>.cls-1,.cls-3,.cls-4,.cls-5,.cls-6,.cls-7,.cls-8{fill:none;stroke-miterlimit:10;}.cls-1{stroke:#e60012;stroke-width:0.08px;}.cls-2{fill:#e60012;}.cls-3,.cls-4,.cls-5,.cls-6,.cls-7,.cls-8{stroke:#231815;}.cls-3{stroke-width:2.59px;}.cls-4{stroke-width:1.3px;}.cls-5{stroke-width:1.33px;}.cls-6{stroke-width:1.31px;}.cls-7{stroke-width:1.31px;}.cls-8{stroke-width:1.31px;}</style></defs><g id="レイヤー_2" data-name="レイヤー 2"><g id="レイヤー_1-2" data-name="レイヤー 1"><line class="cls-1" x1="58.18" y1="30.77" x2="26.08" y2="30.77"/><path class="cls-2" d="M42.32,5.05,26.08,30.77h32.1Z"/><polyline class="cls-3" points="33.6 44.29 17.34 72.45 1.49 44.29 17.75 16.13"/><polyline class="cls-3" points="41.93 58.93 58.18 30.77 42.33 2.61 26.08 30.77"/><line class="cls-3" x1="8.48" y1="44.29" x2="26.16" y2="44.29"/><line class="cls-3" x1="33.6" y1="30.77" x2="51.27" y2="30.77"/><polyline class="cls-4" points="80.61 0.68 72.44 0.68 72.36 16.07"/><line class="cls-4" x1="80.26" y1="8.38" x2="72.71" y2="8.38"/><line class="cls-4" x1="83.48" y1="15.64" x2="92.08" y2="15.64"/><line class="cls-4" x1="84.13" y1="16.07" x2="84.13" y2="5.37"/><line class="cls-4" x1="91.43" y1="16.07" x2="91.43" y2="5.37"/><line class="cls-4" x1="94.82" y1="5.8" x2="103.42" y2="5.8"/><line class="cls-4" x1="95.46" y1="5.37" x2="95.46" y2="16.07"/><line class="cls-4" x1="102.77" y1="5.37" x2="102.77" y2="16.07"/><polyline class="cls-4" points="80.61 44.44 72.44 44.44 72.36 29.04"/><rect class="cls-4" x="83.69" y="37.06" width="7.38" height="7.38"/><line class="cls-4" x1="95.47" y1="45.08" x2="95.47" y2="36.48"/><line class="cls-4" x1="95.03" y1="44.43" x2="103.63" y2="44.43"/><line class="cls-4" x1="95.03" y1="37.12" x2="103.63" y2="37.12"/><line class="cls-4" x1="118.21" y1="41.37" x2="118.21" y2="36.33"/><line class="cls-4" x1="117.78" y1="40.74" x2="126.37" y2="40.74"/><line class="cls-4" x1="117.71" y1="36.98" x2="126.37" y2="36.98"/><line class="cls-4" x1="125.87" y1="45.14" x2="125.87" y2="40.1"/><line class="cls-4" x1="126.37" y1="44.5" x2="117.71" y2="44.5"/><line class="cls-4" x1="126.37" y1="40.74" x2="117.71" y2="40.74"/><line class="cls-4" x1="114.58" y1="37.04" x2="106.37" y2="37.04"/><line class="cls-4" x1="110.05" y1="37.04" x2="114.58" y2="44.89"/><line class="cls-4" x1="106.37" y1="29.03" x2="106.37" y2="44.89"/><line class="cls-4" x1="72.86" y1="67.19" x2="72.86" y2="74.66"/><line class="cls-5" x1="72.21" y1="67.58" x2="81.16" y2="67.58"/><line class="cls-6" x1="72.21" y1="74.27" x2="81.02" y2="74.27"/><line class="cls-4" x1="80.52" y1="60.49" x2="80.52" y2="67.97"/><line class="cls-7" x1="81.16" y1="60.89" x2="72.36" y2="60.89"/><line class="cls-8" x1="81.16" y1="67.58" x2="72.36" y2="67.58"/><rect class="cls-4" x="83.69" y="60.82" width="7.38" height="13.45"/><rect class="cls-4" x="106.37" y="60.82" width="7.38" height="13.45"/><line class="cls-4" x1="83.69" y1="60.86" x2="91.07" y2="74.31"/><line class="cls-4" x1="106.37" y1="60.86" x2="113.75" y2="74.31"/><line class="cls-4" x1="95.68" y1="67.19" x2="95.68" y2="74.66"/><line class="cls-5" x1="95.03" y1="67.58" x2="103.99" y2="67.58"/><line class="cls-6" x1="95.03" y1="74.27" x2="103.85" y2="74.27"/><line class="cls-4" x1="103.35" y1="60.49" x2="103.35" y2="67.97"/><line class="cls-7" x1="103.99" y1="60.89" x2="95.18" y2="60.89"/><line class="cls-8" x1="103.99" y1="67.58" x2="95.18" y2="67.58"/></g></g></svg>